{
	"asset":{
		"generator":"Khronos glTF Blender I/O v4.5.49",
		"version":"2.0"
	},
	"scene":0,
	"scenes":[
		{
			"name":"Scene",
			"nodes":[
				0,
				1,
				2,
				3
			]
		}
	],
	"nodes":[
		{
			"mesh":0,
			"name":"Trunk",
			"rotation":[
				0,
				0,
				-1,
				6.123234262925839e-17
			],
			"translation":[
				0,
				1.2537206411361694,
				0
			]
		},
		{
			"mesh":1,
			"name":"Tree",
			"translation":[
				0,
				11.0376558303833,
				0
			]
		},
		{
			"mesh":2,
			"name":"Snow",
			"translation":[
				0,
				6.515503406524658,
				0
			]
		},
		{
			"mesh":3,
			"name":"Star",
			"rotation":[
				0.7071068286895752,
				0,
				0,
				0.7071068286895752
			]
		}
	],
	"meshes":[
		{
			"name":"Trunk",
			"primitives":[
				{
					"attributes":{
						"POSITION":0,
						"NORMAL":1,
						"TEXCOORD_0":2
					},
					"indices":3
				}
			]
		},
		{
			"name":"Tree",
			"primitives":[
				{
					"attributes":{
						"POSITION":4,
						"NORMAL":5,
						"TEXCOORD_0":6
					},
					"indices":7
				}
			]
		},
		{
			"name":"Snow",
			"primitives":[
				{
					"attributes":{
						"POSITION":8,
						"NORMAL":9,
						"TEXCOORD_0":10
					},
					"indices":11
				}
			]
		},
		{
			"name":"Cylinder.001",
			"primitives":[
				{
					"attributes":{
						"POSITION":12,
						"NORMAL":13,
						"TEXCOORD_0":14
					},
					"indices":15
				}
			]
		}
	],
	"accessors":[
		{
			"bufferView":0,
			"componentType":5126,
			"count":3024,
			"max":[
				2.0329430103302,
				1.113272786140442,
				2.0272583961486816
			],
			"min":[
				-2.0329430103302,
				-1.113272786140442,
				-2.0272583961486816
			],
			"type":"VEC3"
		},
		{
			"bufferView":1,
			"componentType":5126,
			"count":3024,
			"type":"VEC3"
		},
		{
			"bufferView":2,
			"componentType":5126,
			"count":3024,
			"type":"VEC2"
		},
		{
			"bufferView":3,
			"componentType":5123,
			"count":3024,
			"type":"SCALAR"
		},
		{
			"bufferView":4,
			"componentType":5126,
			"count":83910,
			"max":[
				4.3033037185668945,
				1.4138648509979248,
				4.390289306640625
			],
			"min":[
				-4.261860370635986,
				-9.143427848815918,
				-3.971231698989868
			],
			"type":"VEC3"
		},
		{
			"bufferView":5,
			"componentType":5126,
			"count":83910,
			"type":"VEC3"
		},
		{
			"bufferView":6,
			"componentType":5126,
			"count":83910,
			"type":"VEC2"
		},
		{
			"bufferView":7,
			"componentType":5125,
			"count":83910,
			"type":"SCALAR"
		},
		{
			"bufferView":8,
			"componentType":5126,
			"count":116670,
			"max":[
				4.577143669128418,
				6.071451187133789,
				4.61870813369751
			],
			"min":[
				-4.701098442077637,
				-4.215787887573242,
				-4.384954452514648
			],
			"type":"VEC3"
		},
		{
			"bufferView":9,
			"componentType":5126,
			"count":116670,
			"type":"VEC3"
		},
		{
			"bufferView":10,
			"componentType":5126,
			"count":116670,
			"type":"VEC2"
		},
		{
			"bufferView":11,
			"componentType":5125,
			"count":116670,
			"type":"SCALAR"
		},
		{
			"bufferView":12,
			"componentType":5126,
			"count":2104,
			"max":[
				0.6092238426208496,
				0.2961678206920624,
				-13.184462547302246
			],
			"min":[
				-0.6092427372932434,
				-0.2961801588535309,
				-14.350595474243164
			],
			"type":"VEC3"
		},
		{
			"bufferView":13,
			"componentType":5126,
			"count":2104,
			"type":"VEC3"
		},
		{
			"bufferView":14,
			"componentType":5126,
			"count":2104,
			"type":"VEC2"
		},
		{
			"bufferView":15,
			"componentType":5123,
			"count":10560,
			"type":"SCALAR"
		}
	],
	"bufferViews":[
		{
			"buffer":0,
			"byteLength":36288,
			"byteOffset":0,
			"target":34962
		},
		{
			"buffer":0,
			"byteLength":36288,
			"byteOffset":36288,
			"target":34962
		},
		{
			"buffer":0,
			"byteLength":24192,
			"byteOffset":72576,
			"target":34962
		},
		{
			"buffer":0,
			"byteLength":6048,
			"byteOffset":96768,
			"target":34963
		},
		{
			"buffer":0,
			"byteLength":1006920,
			"byteOffset":102816,
			"target":34962
		},
		{
			"buffer":0,
			"byteLength":1006920,
			"byteOffset":1109736,
			"target":34962
		},
		{
			"buffer":0,
			"byteLength":671280,
			"byteOffset":2116656,
			"target":34962
		},
		{
			"buffer":0,
			"byteLength":335640,
			"byteOffset":2787936,
			"target":34963
		},
		{
			"buffer":0,
			"byteLength":1400040,
			"byteOffset":3123576,
			"target":34962
		},
		{
			"buffer":0,
			"byteLength":1400040,
			"byteOffset":4523616,
			"target":34962
		},
		{
			"buffer":0,
			"byteLength":933360,
			"byteOffset":5923656,
			"target":34962
		},
		{
			"buffer":0,
			"byteLength":466680,
			"byteOffset":6857016,
			"target":34963
		},
		{
			"buffer":0,
			"byteLength":25248,
			"byteOffset":7323696,
			"target":34962
		},
		{
			"buffer":0,
			"byteLength":25248,
			"byteOffset":7348944,
			"target":34962
		},
		{
			"buffer":0,
			"byteLength":16832,
			"byteOffset":7374192,
			"target":34962
		},
		{
			"buffer":0,
			"byteLength":21120,
			"byteOffset":7391024,
			"target":34963
		}
	],
	"buffers":[
		{
			"byteLength":7412144,
			"uri":"christmas-tree.bin"
		}
	]
}
