{
	"asset":{
		"generator":"Khronos glTF Blender I/O v4.5.49",
		"version":"2.0"
	},
	"scene":0,
	"scenes":[
		{
			"name":"Scene",
			"nodes":[
				0,
				1
			]
		}
	],
	"nodes":[
		{
			"mesh":0,
			"name":"BG",
			"translation":[
				-1.1977221965789795,
				2.312432289123535,
				-3.702028751373291
			]
		},
		{
			"mesh":1,
			"name":"POST",
			"translation":[
				-1.1977221965789795,
				2.312432289123535,
				-3.702028751373291
			]
		}
	],
	"meshes":[
		{
			"name":"BG",
			"primitives":[
				{
					"attributes":{
						"POSITION":0,
						"NORMAL":1,
						"TEXCOORD_0":2
					},
					"indices":3
				}
			]
		},
		{
			"name":"BG.002",
			"primitives":[
				{
					"attributes":{
						"POSITION":4,
						"NORMAL":5,
						"TEXCOORD_0":6
					},
					"indices":7
				}
			]
		}
	],
	"accessors":[
		{
			"bufferView":0,
			"componentType":5126,
			"count":953370,
			"max":[
				42.38108444213867,
				23.058063507080078,
				22.5968074798584
			],
			"min":[
				-32.960025787353516,
				-5.125168323516846,
				-65.60823822021484
			],
			"type":"VEC3"
		},
		{
			"bufferView":1,
			"componentType":5126,
			"count":953370,
			"type":"VEC3"
		},
		{
			"bufferView":2,
			"componentType":5126,
			"count":953370,
			"type":"VEC2"
		},
		{
			"bufferView":3,
			"componentType":5125,
			"count":953370,
			"type":"SCALAR"
		},
		{
			"bufferView":4,
			"componentType":5126,
			"count":24684,
			"max":[
				-5.12734317779541,
				1.9506335258483887,
				8.939410209655762
			],
			"min":[
				-7.342543601989746,
				0.6057318449020386,
				7.094825267791748
			],
			"type":"VEC3"
		},
		{
			"bufferView":5,
			"componentType":5126,
			"count":24684,
			"type":"VEC3"
		},
		{
			"bufferView":6,
			"componentType":5126,
			"count":24684,
			"type":"VEC2"
		},
		{
			"bufferView":7,
			"componentType":5123,
			"count":24684,
			"type":"SCALAR"
		}
	],
	"bufferViews":[
		{
			"buffer":0,
			"byteLength":11440440,
			"byteOffset":0,
			"target":34962
		},
		{
			"buffer":0,
			"byteLength":11440440,
			"byteOffset":11440440,
			"target":34962
		},
		{
			"buffer":0,
			"byteLength":7626960,
			"byteOffset":22880880,
			"target":34962
		},
		{
			"buffer":0,
			"byteLength":3813480,
			"byteOffset":30507840,
			"target":34963
		},
		{
			"buffer":0,
			"byteLength":296208,
			"byteOffset":34321320,
			"target":34962
		},
		{
			"buffer":0,
			"byteLength":296208,
			"byteOffset":34617528,
			"target":34962
		},
		{
			"buffer":0,
			"byteLength":197472,
			"byteOffset":34913736,
			"target":34962
		},
		{
			"buffer":0,
			"byteLength":49368,
			"byteOffset":35111208,
			"target":34963
		}
	],
	"buffers":[
		{
			"byteLength":35160576,
			"uri":"world.bin"
		}
	]
}
